#!OML:ASF Y:\EmotionMaleHayes\Project 1\Capture day 1\Session 1\Male1.ASF
:FULLY-SPECIFIED
:DEGREES
461
root 16.4659 16.7224 0.40785 592.396 88.9057 596.664
lowerback 8.84164 -0.11575 -0.344168
upperback 2.84105 -0.0387864 1.96964
thorax -2.01121 0.0158538 2.2315
lowerneck -23.6407 2.81451 3.95917
upperneck 21.4266 3.19494 -2.36318
head 10.9323 1.50578 -0.991722
rclavicle -2.98177e-016 2.14687e-014
rhumerus -35.2308 1.32675 -84.3994
rradius 27.1517
rwrist 10.5582
rhand -7.48541 -32.3664
rfingers 7.12502
rthumb 18.4039 -61.5158
lclavicle -2.98177e-016 2.14687e-014
lhumerus -31.0273 -6.35039 91.5165
lradius 23.8669
lwrist -15.8979
lhand -13.1478 -26.3525
lfingers 7.12502
lthumb 12.9507 3.22562
rfemur -10.4679 1.12792 22.3461
rtibia 23.8409
rfoot -13.7128 -4.75917
rtoes 14.72
lfemur 9.759 2.5704 -15.7992
ltibia 55.336
lfoot 2.43687 1.4769
ltoes -0.758251
462
root 16.6228 16.7527 0.419755 609.391 88.1626 613.664
lowerback 8.8279 -0.0497598 0.595683
upperback 2.86062 0.139051 2.12433
thorax -1.9899 0.107174 1.84326
lowerneck -23.4516 2.62774 3.81175
upperneck 21.3407 2.9328 -2.1336
head 10.8499 1.40576 -0.927994
rclavicle -7.45443e-016 6.75868e-015
rhumerus -34.2512 1.94604 -84.7272
rradius 27.3747
rwrist 10.0072
rhand -7.92294 -32.2074
rfingers 7.12502
rthumb 17.983 -61.3961
lclavicle -7.45443e-016 6.75868e-015
lhumerus -31.2468 -5.24374 90.9578
lradius 22.4713
lwrist -18.561
lhand -11.5488 -25.9819
lfingers 7.12502
lthumb 14.4917 3.49207
rfemur -9.44783 1.07615 23.4238
rtibia 23.2001
rfoot -14.0643 -4.59316
rtoes 15.3449
lfemur 7.99923 2.94959 -14.6161
ltibia 57.1999
lfoot 1.90221 1.25997
ltoes -0.986377
463
root 16.7778 16.7833 0.427957 617.447 87.5601 621.794
lowerback 8.92566 0.0582474 1.3623
upperback 2.89219 0.359363 2.23244
thorax -2.0138 0.219975 1.50062
lowerneck -23.4124 2.47531 3.82504
upperneck 21.3899 2.73353 -2.18625
head 10.8552 1.31069 -0.981747
rclavicle -2.68359e-015 -1.31198e-014
rhumerus -33.3664 2.32301 -84.8827
rradius 27.7735
rwrist 9.73044
rhand -8.28272 -31.9076
rfingers 7.12502
rthumb 17.6368 -61.1277
lclavicle -2.68359e-015 -1.31198e-014
lhumerus -31.4537 -3.80443 90.2424
lradius 21.1361
lwrist -21.764
lhand -10.1282 -25.7347
lfingers 7.12502
lthumb 15.8602 3.63571
rfemur -8.30944 1.00672 24.2472
rtibia 22.4251
rfoot -14.3706 -4.36966
rtoes 15.7053
lfemur 6.40018 3.34266 -13.7108
ltibia 58.7185
lfoot 1.74518 1.40633
ltoes -0.17583
464
root 16.9332 16.813 0.435549 615.574 87.4993 620.024
lowerback 9.05464 0.133249 1.47523
upperback 2.89876 0.472727 2.20065
thorax -2.07894 0.276954 1.39196
lowerneck -23.5019 2.37782 3.85418
upperneck 21.5841 2.61779 -2.28939
head 10.9418 1.24838 -1.04242
rclavicle 3.57812e-015 9.14409e-015
rhumerus -32.5332 2.67596 -84.9654
rradius 28.2492
rwrist 9.46501
rhand -8.6239 -31.799
rfingers 7.12502
rthumb 17.3084 -61.0483
lclavicle 3.57812e-015 9.14409e-015
lhumerus -31.8194 -2.2669 89.4449
lradius 19.9477
lwrist -24.8491
lhand -8.90056 -25.7469
lfingers 7.12502
lthumb 17.0422 3.52554
rfemur -7.11609 0.626918 24.2377
rtibia 21.5932
rfoot -14.5945 -4.0949
rtoes 15.6545
lfemur 4.78639 3.48481 -13.6275
ltibia 60.1838
lfoot 1.38772 1.83856
ltoes 2.73532
465
root 17.0874 16.8454 0.443211 614.411 87.4567 618.916
lowerback 9.12925 0.241791 1.57947
upperback 2.87233 0.626842 2.14911
thorax -2.14794 0.353289 1.2631
lowerneck -23.4785 2.22036 3.54845
upperneck 21.6621 2.40872 -1.90233
head 10.9494 1.17908 -0.885003
rclavicle 3.97569e-015 -1.15295e-014
rhumerus -31.7825 3.22009 -85.109
rradius 28.7606
rwrist 8.95611
rhand -8.95893 -32.011
rfingers 7.12502
rthumb 16.986 -61.2883
lclavicle 3.97569e-015 -1.15295e-014
lhumerus -32.2939 -0.717664 88.5564
lradius 18.9749
lwrist -27.7789
lhand -7.80936 -25.8005
lfingers 7.12502
lthumb 18.0923 3.37804
rfemur -5.9782 0.313603 24.2208
rtibia 20.785
rfoot -14.7287 -3.81781
rtoes 16.0029
lfemur 3.08748 3.75201 -13.5728
ltibia 61.5573
lfoot 0.824952 1.97235
ltoes 2.78376
466
root 17.2386 16.8782 0.448836 618.944 87.3888 623.465
lowerback 9.11534 0.419213 1.77661
upperback 2.86363 0.878109 2.11146
thorax -2.14845 0.478221 1.08626
lowerneck -23.097 2.01143 3.17037
upperneck 21.4643 2.1413 -1.43937
head 10.787 1.08763 -0.699582
rclavicle -1.54058e-015 -1.66979e-014
rhumerus -31.0651 3.73888 -85.2207
rradius 29.3707
rwrist 8.46899
rhand -9.25098 -32.1487
rfingers 7.12502
rthumb 16.7048 -61.45
lclavicle -1.54058e-015 -1.66979e-014
lhumerus -32.7109 1.21412 87.4708
lradius 18.0904
lwrist -31.1238
lhand -6.80488 -25.6719
lfingers 7.12502
lthumb 19.0585 3.41431
rfemur -4.96503 0.247602 24.346
rtibia 20.0911
rfoot -14.7702 -3.54587
rtoes 15.3018
lfemur 1.37569 4.25032 -13.3963
ltibia 62.7453
lfoot 0.415468 1.87399
ltoes 1.99899
467
root 17.3885 16.9099 0.455335 623.373 87.4305 627.949
lowerback 9.12254 0.598653 1.80353
upperback 2.91758 1.11664 2.05751
thorax -2.09655 0.597792 0.989948
lowerneck -22.7109 1.86183 3.16406
upperneck 21.2113 1.94525 -1.43858
head 10.6176 0.999006 -0.731398
rclavicle 3.47873e-015 1.59028e-014
rhumerus -30.2039 4.14365 -85.2494
rradius 29.9327
rwrist 8.29504
rhand -9.43555 -32.2155
rfingers 7.12502
rthumb 16.5271 -61.5316
lclavicle 3.47873e-015 1.59028e-014
lhumerus -33.0046 3.24676 86.2619
lradius 17.1467
lwrist -34.6606
lhand -5.9676 -25.6426
lfingers 7.12502
lthumb 19.8635 3.36237
rfemur -3.90851 0.224415 24.3358
rtibia 19.3696
rfoot -14.9567 -3.31307
rtoes 14.1475
lfemur -0.238567 4.71335 -13.3365
ltibia 63.702
lfoot 0.467319 1.82743
ltoes 4.06398
468
root 17.5434 16.9413 0.462975 625.948 87.4317 630.648
lowerback 9.20805 0.745709 1.85293
upperback 2.98692 1.31682 1.98371
thorax -2.07006 0.698733 0.863777
lowerneck -22.7141 1.78077 3.28314
upperneck 21.271 1.82573 -1.56491
head 10.6396 0.939184 -0.815258
rclavicle 5.86415e-015 8.34896e-015
rhumerus -29.3025 4.54573 -85.3144
rradius 30.3671
rwrist 7.94652
rhand -10.081 -32.0449
rfingers 7.12502
rthumb 15.9057 -61.4118
lclavicle 5.86415e-015 8.34896e-015
lhumerus -33.4202 5.03203 84.9824
lradius 16.288
lwrist -38.0615
lhand -5.57088 -25.9197
lfingers 7.12502
lthumb 20.2448 3.04529
rfemur -2.68116 0.122557 24.3541
rtibia 18.4939
rfoot -15.2006 -3.1071
rtoes 13.1952
lfemur -1.64811 5.03351 -13.2625
ltibia 64.2756
lfoot -0.747782 1.18971
ltoes 3.16826
469
root 17.6955 16.9692 0.470237 628.756 87.5935 633.577
lowerback 9.31139 0.888598 1.74646
upperback 3.03872 1.49458 1.84039
thorax -2.07269 0.787516 0.754953
lowerneck -23.0059 1.74021 3.35578
upperneck 21.6286 1.75492 -1.61709
head 10.8245 0.908182 -0.856394
rclavicle 4.05024e-015 -1.94809e-014
rhumerus -28.4074 4.91701 -85.3893
rradius 30.7501
rwrist 7.53257
rhand -10.8956 -31.6091
rfingers 7.12502
rthumb 15.1211 -61.0367
lclavicle 4.05024e-015 -1.94809e-014
lhumerus -34.0546 6.29645 83.85
lradius 15.8158
lwrist -40.4394
lhand -5.44568 -26.0305
lfingers 7.12502
lthumb 20.3651 2.92168
rfemur -1.53008 0.00250829 24.1726
rtibia 17.7606
rfoot -15.4551 -2.87694
rtoes 11.9855
lfemur -3.0534 5.33173 -13.4187
ltibia 64.6354
lfoot -1.40272 0.912627
ltoes 4.12312
